<svg width="32" height="32" viewBox="0 0 32 32" fill="none" xmlns="http://www.w3.org/2000/svg">
  <rect width="32" height="32" rx="6" fill="#FF7A00"/>
  <path d="M16 4C14 4 12.5 5 12 6C11.5 7 11 8 10 10C9 12 9 15 9 15L8 17C7 18 7 20 7 21C7 22 7 23 8 24C9 25 11 26 13 26C15 26 15.5 25 16 25C16.5 25 17 26 19 26C21 26 23 25 24 24C25 23 25 22 25 21C25 20 25 18 24 17L23 15C23 15 23 12 22 10C21 8 20.5 7 20 6C19.5 5 18 4 16 4Z" fill="white"/>
  <circle cx="13" cy="14" r="1.5" fill="#FF7A00"/>
  <circle cx="19" cy="14" r="1.5" fill="#FF7A00"/>
  <path d="M13 18C13 18 14 20 16 20C18 20 19 18 19 18" stroke="#FF7A00" stroke-width="1.5" stroke-linecap="round"/>
</svg> 